<?xml version="1.0" encoding="UTF-8"?>
<svg version="1.1" xmlns="http://www.w3.org/2000/svg" width="512" height="512">
<path d="M0 0 C0.82886719 0.67675781 1.65773438 1.35351562 2.51171875 2.05078125 C6.52411864 5.43296126 6.52411864 5.43296126 8 7 C8 7.66 8 8.32 8 9 C8.66 9 9.32 9 10 9 C31.16210669 32.36232572 40.1043219 62.44182994 39.13623047 93.54101562 C37.84410563 116.86410055 27.97004647 137.67747675 14 156 C13.28199219 156.95777344 12.56398438 157.91554688 11.82421875 158.90234375 C10.92123047 159.94068359 10.92123047 159.94068359 10 161 C9.34 161 8.68 161 8 161 C7.77957031 161.56203125 7.55914062 162.1240625 7.33203125 162.703125 C-1.40702436 177.77222968 -25.29392708 187.74569968 -41.43115234 192.21411133 C-72.82757477 200.49290692 -104.04484372 195.49478757 -132.04931641 179.22021484 C-136.74946171 176.28012395 -140.84470792 172.65325865 -145 169 C-145.99 168.34 -146.98 167.68 -148 167 C-148 166.34 -148 165.68 -148 165 C-148.66 165 -149.32 165 -150 165 C-150 164.34 -150 163.68 -150 163 C-150.66 163 -151.32 163 -152 163 C-152 162.34 -152 161.68 -152 161 C-152.66 161 -153.32 161 -154 161 C-155.2175293 159.72167969 -155.2175293 159.72167969 -156.57421875 157.921875 C-157.07356934 157.261875 -157.57291992 156.601875 -158.08740234 155.921875 C-158.61543457 155.20515625 -159.1434668 154.4884375 -159.6875 153.75 C-160.22842285 153.0178125 -160.7693457 152.285625 -161.32666016 151.53125 C-179.07112157 127.2129944 -186.7271447 97.69518406 -182.31640625 67.6796875 C-178.72879468 47.04647842 -170.70871322 28.90990904 -157 13 C-156.17242187 11.97326172 -156.17242187 11.97326172 -155.328125 10.92578125 C-150.54860226 5.13345489 -144.94049528 0.56263041 -139 -4 C-138.195625 -4.62003906 -137.39125 -5.24007812 -136.5625 -5.87890625 C-125.07739159 -14.32272773 -112.60625824 -19.25477222 -99 -23 C-98.0404541 -23.26949463 -98.0404541 -23.26949463 -97.06152344 -23.54443359 C-63.23983324 -32.61426401 -26.47368867 -21.79018752 0 0 Z " fill="#FFFFFF" transform="translate(328,171)"/>
</svg>
