<svg width="24" height="24" viewBox="0 0 24 24" fill="none" xmlns="http://www.w3.org/2000/svg">
<path d="M2 12.58C2.38235 15.5614 4.21294 18.2096 6.70588 19.645M20.8235 10.2249C20.5358 8.15279 19.5754 6.2328 18.0902 4.76073C16.605 3.28865 14.6774 2.34616 12.6043 2.07843C10.5313 1.81071 8.42779 2.2326 6.61788 3.27913C4.80798 4.32565 3.39206 5.93875 2.58824 7.86993M2 3.15991V7.86993H6.70588M11.4118 14.935H13.7647C14.0767 14.935 14.376 15.059 14.5966 15.2799C14.8172 15.5007 14.9412 15.8002 14.9412 16.1125V17.29C14.9412 17.6023 14.8172 17.9018 14.5966 18.1226C14.376 18.3434 14.0767 18.4675 13.7647 18.4675H12.5882C12.2762 18.4675 11.977 18.5915 11.7563 18.8124C11.5357 19.0332 11.4118 19.3327 11.4118 19.645V20.8225C11.4118 21.1348 11.5357 21.4343 11.7563 21.6551C11.977 21.8759 12.2762 22 12.5882 22H14.9412M18.4706 14.935V17.29C18.4706 17.6023 18.5945 17.9018 18.8152 18.1226C19.0358 18.3434 19.335 18.4675 19.6471 18.4675H20.8235M22 14.935V22" stroke="#5F8B2D" stroke-width="2" stroke-linecap="round" stroke-linejoin="round"/>
</svg>
