<svg width="110" height="32" viewBox="0 0 110 32" fill="none" xmlns="http://www.w3.org/2000/svg">
<g clip-path="url(#clip0_815_24301)">
<g filter="url(#filter0_d_815_24301)">
<path d="M15.7899 10.3914H7.84739C6.34253 10.3914 5.22557 10.4763 4.49573 10.6461C3.76589 10.8159 3.16457 11.1291 2.69255 11.5863C2.27973 11.9843 1.97362 12.4454 1.77422 12.9689C1.57482 13.4923 1.45331 14.1816 1.40891 15.0376H0.90028V0.899632H1.40891C1.45331 1.75488 1.57482 2.44421 1.77422 2.96842C1.97362 3.49185 2.27895 3.95296 2.69255 4.35099C3.16457 4.82301 3.762 5.14002 4.48483 5.30204C5.20766 5.46405 6.32851 5.54506 7.84739 5.54506H24.1531C25.4212 5.54506 26.3987 5.48975 27.0849 5.37915C27.7711 5.26854 28.3273 5.08083 28.7557 4.81522C29.3453 4.43121 29.7846 3.94517 30.0721 3.35476C30.3595 2.76435 30.5332 1.9979 30.5924 1.05386V0.898853H31.101V14.2408C31.101 16.5713 30.9826 18.2896 30.7474 19.3957C30.5114 20.5017 30.0393 21.512 29.3313 22.4264C27.7384 24.5209 25.6143 25.5677 22.9598 25.5677C20.3053 25.5677 18.284 24.5061 17.0307 22.382C16.3811 21.2759 15.9909 19.9331 15.8585 18.355C15.8141 17.8534 15.7923 16.6438 15.7923 14.7269V10.3907L15.7899 10.3914ZM16.498 10.3914V12.5599C16.498 14.0204 16.6047 15.1444 16.8189 15.9342C17.0323 16.7232 17.4272 17.4273 18.0028 18.0474C19.3153 19.493 21.0632 20.2158 23.2465 20.2158C24.4553 20.2158 25.5661 20.0055 26.5763 19.5849C27.5865 19.1643 28.4091 18.5638 29.0431 17.7817C29.7955 16.8821 30.238 15.8127 30.3704 14.5734C30.4 14.2338 30.4148 13.4596 30.4148 12.2507V10.3922H16.498V10.3914Z" fill="#C9BAA5"/>
</g>
<g filter="url(#filter1_d_815_24301)">
<path d="M21.6088 15.7894V7.84682C21.6088 6.34196 21.5239 5.225 21.3541 4.49516C21.1843 3.76533 20.8712 3.16401 20.414 2.69199C20.016 2.27916 19.5548 1.97305 19.0314 1.77365C18.508 1.57425 17.8187 1.45274 16.9626 1.40834V0.899712H31.0999V1.40834C30.2446 1.45274 29.5553 1.57425 29.0311 1.77365C28.5076 1.97305 28.0465 2.27838 27.6485 2.69199C27.1765 3.16401 26.8595 3.76143 26.6975 4.48426C26.5354 5.20709 26.4544 6.32794 26.4544 7.84682V24.1525C26.4544 25.4206 26.5097 26.3981 26.6203 27.0844C26.7309 27.7706 26.9187 28.3267 27.1843 28.7551C27.5683 29.3448 28.0543 29.7841 28.6447 30.0715C29.2351 30.3589 30.0016 30.5326 30.9456 30.5918H31.1006V31.1004H17.7595C15.4289 31.1004 13.7107 30.982 12.6046 30.7468C11.4986 30.5108 10.4883 30.0388 9.57388 29.3307C7.47939 27.7379 6.43253 25.6138 6.43253 22.9592C6.43253 20.3047 7.49419 18.2834 9.61828 17.0302C10.7243 16.3806 12.0672 15.9903 13.6452 15.8579C14.1469 15.8135 15.3565 15.7917 17.2734 15.7917H21.6096L21.6088 15.7894ZM21.6088 16.4974H19.4403C17.9799 16.4974 16.8559 16.6041 16.0661 16.8183C15.2771 17.0317 14.5729 17.4266 13.9529 18.0023C12.5073 19.3147 11.7844 21.0626 11.7844 23.2459C11.7844 24.4548 11.9947 25.5655 12.4153 26.5757C12.836 27.586 13.4365 28.4085 14.2185 29.0425C15.1182 29.795 16.1876 30.2374 17.4269 30.3698C17.7665 30.3994 18.5407 30.4142 19.7496 30.4142H21.6081V16.4974H21.6088Z" fill="#C9BAA5"/>
</g>
<g filter="url(#filter2_d_815_24301)">
<path d="M16.2108 21.6085H24.1533C25.6582 21.6085 26.7751 21.5236 27.505 21.3538C28.2348 21.184 28.8361 20.8709 29.3082 20.4137C29.721 20.0157 30.0271 19.5546 30.2265 19.0311C30.4259 18.5077 30.5474 17.8184 30.5918 16.9623H31.1004V31.0996H30.5918C30.5474 30.2443 30.4259 29.555 30.2265 29.0308C30.0271 28.5074 29.7218 28.0462 29.3082 27.6482C28.8361 27.1762 28.2387 26.8592 27.5159 26.6972C26.793 26.5352 25.6722 26.4541 24.1533 26.4541H7.8476C6.57953 26.4541 5.602 26.5095 4.91578 26.6201C4.22956 26.7307 3.67341 26.9184 3.24501 27.184C2.65538 27.568 2.21607 28.054 1.92865 28.6444C1.64123 29.2349 1.46754 30.0013 1.40834 30.9453V31.1004H0.899712V17.7592C0.899712 15.4287 1.01811 13.7104 1.25334 12.6043C1.48935 11.4983 1.96137 10.488 2.6694 9.57359C4.26227 7.4791 6.38636 6.43224 9.04089 6.43224C11.6954 6.43224 13.7167 7.4939 14.97 9.61799C15.6196 10.724 16.0098 12.0669 16.1422 13.645C16.1866 14.1466 16.2084 15.3562 16.2084 17.2731V21.6093L16.2108 21.6085ZM15.5027 21.6085V19.4401C15.5027 17.9796 15.396 16.8556 15.1818 16.0658C14.9684 15.2768 14.5735 14.5726 13.9979 13.9526C12.6854 12.507 10.9375 11.7841 8.75425 11.7841C7.54538 11.7841 6.43465 11.9944 5.42441 12.4151C4.41416 12.8357 3.59163 13.4362 2.95759 14.2182C2.20517 15.1179 1.76275 16.1873 1.63033 17.4266C1.60073 17.7662 1.58593 18.5404 1.58593 19.7493V21.6078H15.5027V21.6085Z" fill="#C9BAA5"/>
</g>
<g filter="url(#filter3_d_815_24301)">
<path d="M10.3915 16.2099V24.1525C10.3915 25.6573 10.4764 26.7743 10.6462 27.5041C10.816 28.234 11.1292 28.8353 11.5864 29.3073C11.9844 29.7201 12.4455 30.0262 12.9689 30.2256C13.4924 30.425 14.1817 30.5465 15.0377 30.5909V31.0996H0.900491V30.5909C1.75573 30.5465 2.44507 30.425 2.96928 30.2256C3.49271 30.0262 3.95382 29.7209 4.35185 29.3073C4.82387 28.8353 5.14088 28.2378 5.3029 27.515C5.46491 26.7922 5.54592 25.6713 5.54592 24.1525V7.84674C5.54592 6.57867 5.49061 5.60114 5.38001 4.91492C5.2694 4.2287 5.08169 3.67256 4.81608 3.24415C4.43207 2.65452 3.94603 2.21521 3.35562 1.92779C2.7652 1.64038 1.99876 1.46668 1.05472 1.40748H0.899712V0.898853H14.2417C16.5722 0.898853 18.2905 1.01725 19.3965 1.25248C20.5026 1.48849 21.5128 1.96051 22.4273 2.66854C24.5217 4.26141 25.5686 6.3855 25.5686 9.04003C25.5686 11.6946 24.5069 13.7158 22.3829 14.9691C21.2768 15.6187 19.934 16.0089 18.3559 16.1414C17.8543 16.1858 16.6446 16.2076 14.7277 16.2076H10.3915V16.2099ZM10.3915 15.5019H12.56C14.0205 15.5019 15.1444 15.3952 15.9343 15.181C16.7233 14.9675 17.4274 14.5726 18.0474 13.997C19.4931 12.6846 20.2159 10.9367 20.2159 8.75339C20.2159 7.54452 20.0056 6.43379 19.585 5.42355C19.1644 4.4133 18.5639 3.59077 17.7818 2.95674C16.8822 2.20431 15.8127 1.76189 14.5735 1.62947C14.2339 1.59987 13.4597 1.58507 12.2508 1.58507H10.3923V15.5019H10.3915Z" fill="#C9BAA5"/>
</g>
<path d="M30.4141 1.58586V30.4141H1.58586V1.58586H30.4141ZM32 0H0V32H32V0Z" fill="#C9BAA5"/>
</g>
<path d="M38.6742 7.89902V11.8309C38.6742 12.5758 38.7162 13.1287 38.7994 13.4904C38.8827 13.8521 39.0369 14.1493 39.2621 14.3827C39.4583 14.587 39.685 14.7383 39.9422 14.8373C40.1995 14.9356 40.5392 14.9963 40.9598 15.0178V15.2697H34.0031V15.0178C34.4237 14.9955 34.7634 14.9356 35.0207 14.8373C35.2779 14.739 35.5054 14.587 35.7008 14.3827C35.9329 14.1493 36.0894 13.8536 36.1688 13.4958C36.249 13.1379 36.2887 12.5834 36.2887 11.8309V3.75906C36.2887 3.13088 36.2612 2.64708 36.207 2.30765C36.1528 1.96823 36.0596 1.69254 35.9291 1.48058C35.7405 1.18877 35.5008 0.971442 35.2107 0.828605C34.9207 0.686537 34.5428 0.600527 34.0786 0.571346H34.0023V0.319462H40.5675C41.7141 0.319462 42.5599 0.377825 43.1042 0.494552C43.6485 0.611278 44.1455 0.844732 44.5959 1.19568C45.6264 1.98435 46.1417 3.03566 46.1417 4.3496C46.1417 5.66355 45.6188 6.66417 44.5737 7.28466C44.0294 7.60566 43.3691 7.79918 42.592 7.86523C42.3454 7.8875 41.7499 7.89825 40.8064 7.89825H38.6727L38.6742 7.89902ZM38.6742 7.54884H39.7415C40.4598 7.54884 41.0133 7.49585 41.4018 7.38987C41.7904 7.2839 42.137 7.08884 42.4416 6.80394C43.1531 6.15426 43.5088 5.28879 43.5088 4.2083C43.5088 3.61008 43.4057 3.06023 43.1989 2.56031C42.992 2.06038 42.6965 1.65337 42.3118 1.33928C41.869 0.966834 41.3431 0.747972 40.7331 0.681929C40.5659 0.667338 40.185 0.659659 39.5903 0.659659H38.6758V7.54884H38.6742Z" fill="#C9BAA5"/>
<path d="M58.5972 0.320229L58.7819 3.93415L58.5315 3.9449C58.4369 3.33132 58.2811 2.82448 58.0636 2.42284C57.846 2.02121 57.53 1.66719 57.1162 1.36079C56.775 1.10506 56.3719 0.924596 55.9078 0.818621C55.4428 0.712645 54.826 0.659658 54.0573 0.659658H51.5641V7.23091H52.2175C52.8779 7.23091 53.3748 7.18713 53.7092 7.09959C54.0428 7.01204 54.3153 6.85539 54.526 6.62884C54.7291 6.41689 54.8795 6.16731 54.9779 5.87857C55.0757 5.59059 55.1573 5.16515 55.223 4.60302L55.4734 4.61377L55.4299 10.4839H55.1795C55.1138 9.92176 55.0176 9.46945 54.8909 9.12618C54.7642 8.78291 54.5879 8.49109 54.3627 8.24996C54.1451 8.01651 53.8619 7.84449 53.5138 7.73544C53.1657 7.62563 52.7229 7.5711 52.1855 7.5711H51.5648V10.0792C51.5648 11.0798 51.59 11.8078 51.6412 12.264C51.6916 12.7201 51.79 13.1018 51.9351 13.4082C52.1816 13.9342 52.5572 14.319 53.0618 14.564C53.5664 14.8089 54.2321 14.931 55.0596 14.931C55.9307 14.931 56.6597 14.8197 57.2483 14.597C57.8361 14.3743 58.3155 14.0295 58.685 13.5618C58.946 13.2477 59.1583 12.8898 59.3216 12.4882C59.485 12.0866 59.6354 11.5575 59.7736 10.9001L60.0239 10.9109L59.8827 15.2697H46.8944V15.0178C47.3082 14.9955 47.6441 14.9372 47.9013 14.8427C48.1586 14.7483 48.3891 14.5947 48.593 14.3827C48.8182 14.1493 48.9724 13.8513 49.0556 13.4904C49.1388 13.1287 49.1808 12.5758 49.1808 11.8309V3.75906C49.1808 3.01416 49.1388 2.46124 49.0556 2.09954C48.9724 1.73784 48.8182 1.44065 48.593 1.2072C48.3968 0.995247 48.17 0.842427 47.9128 0.747202C47.6547 0.652746 47.3158 0.593615 46.8952 0.572113V0.320229H58.5987H58.5972Z" fill="#C9BAA5"/>
<path d="M65.4562 7.95431V11.8309C65.4562 12.5758 65.4982 13.1287 65.5814 13.4904C65.6646 13.8521 65.8188 14.1493 66.044 14.3827C66.2402 14.587 66.467 14.7383 66.7242 14.8373C66.9815 14.9356 67.3212 14.9963 67.7418 15.0178V15.2697H60.785V15.0178C61.2057 14.9955 61.5454 14.9356 61.8026 14.8373C62.0599 14.739 62.2874 14.587 62.4828 14.3827C62.7149 14.1493 62.8714 13.8536 62.9508 13.4957C63.0309 13.1379 63.0706 12.5834 63.0706 11.8309V3.75906C63.0706 3.00725 63.0309 2.45203 62.9508 2.09417C62.8706 1.73631 62.7149 1.44065 62.4828 1.2072C62.2866 0.995247 62.0584 0.842427 61.7973 0.747202C61.5362 0.652746 61.1988 0.593615 60.785 0.572113V0.320229H66.0326C66.9105 0.320229 67.4876 0.324069 67.764 0.33098C68.8892 0.382432 69.7709 0.535251 70.4091 0.790975C71.1274 1.08279 71.6847 1.51898 72.0802 2.09954C72.4756 2.6801 72.6733 3.35359 72.6733 4.11999C72.6733 5.25884 72.245 6.17192 71.3885 6.85769C71.1274 7.06196 70.8389 7.23014 70.5228 7.36146C70.2068 7.49277 69.7846 7.61718 69.2548 7.73391C69.69 7.91668 70.0129 8.10636 70.2236 8.30372C70.3908 8.4573 70.5427 8.64852 70.6809 8.8789C70.819 9.10852 71.0259 9.51629 71.3015 10.0999C71.9473 11.4361 72.4351 12.413 72.7657 13.0296C73.0962 13.647 73.3733 14.094 73.5985 14.3712C73.7802 14.5977 73.9558 14.7544 74.1268 14.8419C74.297 14.9295 74.5314 14.9879 74.8291 15.017V15.2689H71.2145C71.0328 14.8673 70.9168 14.6116 70.8664 14.5025L70.1045 12.7608C69.6472 11.7164 69.1861 10.7934 68.722 9.99011C68.2571 9.19453 67.8327 8.65006 67.4479 8.35824C67.2517 8.21233 67.041 8.10789 66.8166 8.04646C66.5914 7.98425 66.3158 7.95354 65.9891 7.95354H65.4555L65.4562 7.95431ZM65.4562 7.71317H65.87C66.77 7.71317 67.4143 7.66249 67.8021 7.55959C68.1907 7.45745 68.5548 7.2455 68.8961 6.9245C69.6579 6.19419 70.0389 5.28879 70.0389 4.2083C70.0389 3.63158 69.9282 3.08941 69.7068 2.58181C69.4854 2.0742 69.1785 1.65644 68.7869 1.32776C68.4823 1.07972 68.1189 0.906166 67.6983 0.80787C67.2777 0.709574 66.6784 0.659658 65.902 0.659658H65.4555V7.7124L65.4562 7.71317Z" fill="#C9BAA5"/>
<path d="M93.7077 0.320229V0.572113C93.294 0.594383 92.9581 0.652746 92.7008 0.747202C92.4428 0.842427 92.213 0.995247 92.0092 1.2072C91.726 1.49901 91.5519 1.90449 91.4863 2.42284C91.4428 2.80989 91.4206 3.25529 91.4206 3.75906V11.8309C91.4206 12.4368 91.4496 12.9152 91.5077 13.2654C91.5657 13.6155 91.6603 13.8966 91.7909 14.1086C91.9794 14.4004 92.223 14.6177 92.5207 14.7605C92.8184 14.9026 93.2138 14.9886 93.707 15.0178V15.2697H86.7502V15.0178C87.1708 14.9955 87.5105 14.9356 87.7678 14.8373C88.0251 14.739 88.2526 14.587 88.448 14.3827C88.6801 14.1493 88.8365 13.8536 88.9159 13.4957C88.9961 13.1379 89.0358 12.5834 89.0358 11.8309V3.75906C89.0358 3.00725 88.9961 2.45203 88.9159 2.09417C88.8358 1.73631 88.6801 1.44065 88.448 1.2072C88.2518 0.995247 88.0235 0.842427 87.7625 0.747202C87.5014 0.652746 87.164 0.593615 86.7502 0.572113V0.320229H93.707H93.7077Z" fill="#C9BAA5"/>
<path d="M109.929 15.2697H102.776V15.0178C103.422 14.9594 103.872 14.8496 104.126 14.6891C104.575 14.4042 104.801 14.0103 104.801 13.5065C104.801 13.207 104.699 12.8054 104.496 12.3016L104.311 11.8416L103.266 9.25673H98.4759L97.9094 10.768L97.6369 11.4469C97.3102 12.2502 97.1468 12.8814 97.1468 13.3414C97.1468 13.6117 97.2064 13.8636 97.3262 14.097C97.4461 14.3305 97.6071 14.5202 97.811 14.6669C98.0942 14.8642 98.4568 14.9809 98.8996 15.017V15.2689H94.0223V15.017C94.407 14.9948 94.7444 14.9003 95.0345 14.7321C95.3246 14.564 95.6078 14.2944 95.8834 13.922C96.1155 13.6225 96.3422 13.2377 96.5636 12.7662C96.785 12.2955 97.0773 11.589 97.44 10.6467L101.425 0.319462H102.045L106.782 11.8301C107.137 12.6994 107.421 13.3199 107.63 13.6916C107.841 14.064 108.069 14.3451 108.316 14.5348C108.49 14.6661 108.69 14.7667 108.914 14.8358C109.14 14.9049 109.477 14.9656 109.927 15.0163V15.2682L109.929 15.2697ZM103.092 8.80825L100.806 3.13549L98.6499 8.80825H103.092Z" fill="#C9BAA5"/>
<path d="M39.1873 19.7237C38.8124 19.7237 38.4109 19.736 37.9826 19.7598C37.0666 19.8074 36.3841 19.9242 35.9352 20.11C35.4863 20.2958 35.1161 20.6153 34.8245 21.0699C34.5565 21.4885 34.3519 22.0575 34.2092 22.7748L34.0038 22.7571L34.1642 19.4457H46.2349L46.3952 22.7571L46.1898 22.7748C46.0295 21.9431 45.7776 21.3134 45.4356 20.8856C45.0936 20.4579 44.5951 20.1515 43.9409 19.9656C43.3874 19.8044 42.4507 19.723 41.1308 19.723V28.8768C41.1308 29.4873 41.1652 29.9404 41.2331 30.2368C41.3018 30.5332 41.4278 30.7767 41.6125 30.9679C41.779 31.1414 41.9675 31.2674 42.179 31.3449C42.3904 31.4225 42.6653 31.4709 43.0042 31.4886V31.6951H37.3032V31.4886C37.6483 31.4709 37.9261 31.4225 38.1376 31.3449C38.3491 31.2674 38.5376 31.1414 38.704 30.9679C38.888 30.7767 39.0147 30.534 39.0834 30.2407C39.1521 29.9473 39.1857 29.4927 39.1857 28.8768V19.723L39.1873 19.7237Z" fill="#C9BAA5"/>
<path d="M52.6137 19.445V19.6515C52.2748 19.6692 51.9992 19.7176 51.7885 19.7952C51.577 19.8727 51.3885 19.9987 51.2221 20.1722C50.99 20.4118 50.8472 20.7436 50.7938 21.1682C50.7579 21.4854 50.7404 21.8502 50.7404 22.2633V28.8776C50.7404 29.3744 50.764 29.7661 50.8114 30.0533C50.8587 30.3405 50.9366 30.5709 51.0434 30.7444C51.1984 30.984 51.3969 31.1614 51.6412 31.2781C51.8847 31.3949 52.2091 31.4655 52.6137 31.4893V31.6959H46.9127V31.4893C47.2578 31.4717 47.5357 31.4217 47.7471 31.3411C47.9586 31.2605 48.1441 31.1361 48.3044 30.9687C48.4945 30.7774 48.6227 30.5348 48.6884 30.2414C48.754 29.9481 48.7869 29.4934 48.7869 28.8776V22.2633C48.7869 21.6474 48.754 21.192 48.6884 20.8994C48.6227 20.6061 48.4952 20.3642 48.3044 20.1722C48.1441 19.9987 47.9563 19.8727 47.7425 19.7952C47.5288 19.7176 47.2517 19.6692 46.9127 19.6515V19.445H52.6137Z" fill="#C9BAA5"/>
<path d="M64.4615 19.3828L64.5684 23.3945H64.3631C64.2974 23.2209 64.247 23.0896 64.2111 22.9998C64.0027 22.4253 63.8333 21.9976 63.7027 21.7165C63.4706 21.2143 63.1348 20.7535 62.6943 20.3342C62.3614 20.0171 62.0164 19.7867 61.6591 19.6431C61.3026 19.4995 60.9011 19.4281 60.4545 19.4281C59.7827 19.4281 59.1995 19.5748 58.7056 19.8681C58.2712 20.1254 57.8666 20.4947 57.4925 20.9762C57.1177 21.4577 56.8116 22.0068 56.5734 22.6227C56.2345 23.4905 56.065 24.4773 56.065 25.5846C56.065 26.5238 56.181 27.3709 56.4131 28.1242C56.6452 28.8783 56.9841 29.5096 57.4299 30.018C58.2506 30.9633 59.3392 31.4356 60.695 31.4356C61.3729 31.4356 61.9828 31.3173 62.524 31.0808C63.0653 30.8443 63.4844 30.511 63.7821 30.0802C64.1272 29.5833 64.3768 28.9137 64.5318 28.0697L64.7371 28.1058C64.6241 29.0511 64.3684 29.8022 63.9699 30.3581C63.589 30.8911 63.0645 31.2973 62.395 31.5784C61.7263 31.8595 60.9515 32 60.0713 32C59.2506 32 58.4651 31.8771 57.7162 31.6322C56.5208 31.2374 55.5871 30.524 54.9146 29.4919C54.2428 28.4598 53.9061 27.2288 53.9061 25.7989C53.9061 24.7038 54.1023 23.694 54.4947 22.7701C54.8871 21.8455 55.4344 21.1022 56.136 20.5401C56.6772 20.1092 57.3238 19.7667 58.0765 19.5125C58.8292 19.2584 59.5827 19.1309 60.3385 19.1309C61.0942 19.1309 61.8194 19.2683 62.6225 19.544L63.3538 19.7867C63.4966 19.8405 63.6218 19.8673 63.7287 19.8673C63.8775 19.8673 63.9989 19.8044 64.0943 19.6792C64.1356 19.6193 64.1867 19.521 64.2463 19.3828H64.46H64.4615Z" fill="#C9BAA5"/>
<path d="M69.5472 25.4495L73.3207 21.6804C73.6955 21.3095 73.9291 21.0569 74.0207 20.9217C74.1131 20.7873 74.1589 20.6391 74.1589 20.4778C74.1589 20.1845 74.0161 19.9633 73.7306 19.8136C73.5817 19.7422 73.3321 19.6876 72.981 19.6523V19.4457H76.8261V19.6523C76.5643 19.6761 76.346 19.7199 76.1704 19.7821C75.9948 19.8451 75.8032 19.951 75.5948 20.1008C75.3627 20.2682 74.9642 20.6245 74.3993 21.169L71.5091 23.9605L75.6223 29.2377L76.1307 29.8928C76.5055 30.3597 76.8949 30.7245 77.2995 30.9879C77.543 31.1491 77.7575 31.2643 77.9415 31.3334C78.1254 31.4025 78.3575 31.4548 78.6377 31.4909V31.6974H72.7405V31.4909C73.1863 31.4548 73.5077 31.3803 73.7039 31.2666C73.9001 31.153 73.9986 30.9856 73.9986 30.7644C73.9986 30.5248 73.8764 30.2199 73.6329 29.849C73.5138 29.6693 73.2909 29.3583 72.9642 28.916C72.6367 28.4729 72.3603 28.1142 72.1344 27.8393L70.1274 25.3351L69.5472 25.9095V28.8799C69.5472 29.4904 69.5816 29.9435 69.6495 30.2399C69.7182 30.5363 69.8442 30.7797 70.0289 30.971C70.1892 31.1384 70.3755 31.2628 70.5862 31.3434C70.7977 31.424 71.0755 31.4732 71.4206 31.4916V31.6982H65.7196V31.4916C66.0646 31.474 66.3425 31.424 66.554 31.3434C66.7654 31.2628 66.9509 31.1384 67.1113 30.971C67.3013 30.7797 67.4296 30.5371 67.4952 30.2437C67.5609 29.9504 67.5937 29.4958 67.5937 28.8799V22.2656C67.5937 21.6497 67.5609 21.1943 67.4952 20.9018C67.4296 20.6084 67.3021 20.3665 67.1113 20.1745C66.9509 20.001 66.7631 19.875 66.5494 19.7975C66.3356 19.7199 66.0585 19.6715 65.7196 19.6539V19.4473H71.4206V19.6539C71.0816 19.6715 70.8061 19.7199 70.5954 19.7975C70.3839 19.875 70.1953 20.001 70.0289 20.1745C69.8442 20.3657 69.7182 20.6099 69.6495 20.9056C69.5808 21.202 69.5472 21.6551 69.5472 22.2656V25.4518V25.4495Z" fill="#C9BAA5"/>
<path d="M88.2464 19.445L88.3984 22.4069L88.193 22.4161C88.1159 21.9139 87.9877 21.4977 87.809 21.169C87.6304 20.8403 87.3716 20.55 87.0327 20.2982C86.7533 20.0885 86.4227 19.9411 86.0425 19.8543C85.6616 19.7675 85.1562 19.7245 84.5257 19.7245H82.4829V25.1093H83.018C83.5592 25.1093 83.9669 25.0732 84.2402 25.0018C84.5135 24.9304 84.7364 24.8013 84.9089 24.6155C85.0753 24.4419 85.199 24.2369 85.2792 24.0004C85.3593 23.7639 85.4265 23.416 85.4799 22.9552L85.6853 22.9644L85.6494 27.7748H85.444C85.3906 27.314 85.312 26.9431 85.2074 26.6621C85.1036 26.381 84.9593 26.1414 84.7746 25.944C84.5959 25.7528 84.3639 25.6123 84.0783 25.5224C83.7928 25.4326 83.4302 25.388 82.9897 25.388H82.4813V27.443C82.4813 28.2632 82.5019 28.8599 82.5439 29.2331C82.5852 29.6071 82.6661 29.9197 82.7852 30.1708C82.9875 30.6016 83.2951 30.9172 83.7089 31.1176C84.1219 31.3181 84.6677 31.4187 85.3456 31.4187C86.0593 31.4187 86.6571 31.3273 87.1388 31.1453C87.6205 30.9625 88.0129 30.6799 88.3167 30.2975C88.5304 30.0402 88.7045 29.7469 88.8388 29.4182C88.9724 29.0895 89.0961 28.6556 89.2091 28.1165L89.4144 28.1257L89.2984 31.6974H78.6552V31.4909C78.9942 31.4732 79.269 31.4248 79.4805 31.3473C79.6919 31.2697 79.8805 31.1437 80.0469 30.9702C80.2309 30.779 80.3576 30.5348 80.4263 30.2391C80.495 29.9427 80.5286 29.4896 80.5286 28.8791V22.2648C80.5286 21.6543 80.4942 21.2012 80.4263 20.9048C80.3576 20.6084 80.2316 20.365 80.0469 20.1737C79.8866 20.0002 79.7003 19.8743 79.4896 19.7967C79.2782 19.7191 79.0003 19.6707 78.6552 19.6531V19.4465H88.2457L88.2464 19.445Z" fill="#C9BAA5"/>
<path d="M94.8574 19.7237C94.4826 19.7237 94.081 19.736 93.6528 19.7598C92.7367 19.8074 92.0542 19.9242 91.6054 20.11C91.1565 20.2958 90.7862 20.6153 90.4946 21.0699C90.2267 21.4885 90.0221 22.0575 89.8793 22.7748L89.674 22.7571L89.8343 19.4457H101.905L102.065 22.7571L101.86 22.7748C101.7 21.9431 101.448 21.3134 101.106 20.8856C100.764 20.4579 100.265 20.1515 99.611 19.9656C99.0576 19.8044 98.1209 19.723 96.801 19.723V28.8768C96.801 29.4873 96.8353 29.9404 96.9033 30.2368C96.972 30.5332 97.0979 30.7767 97.2827 30.9679C97.4491 31.1414 97.6377 31.2674 97.8491 31.3449C98.0606 31.4225 98.3354 31.4709 98.6744 31.4886V31.6951H92.9734V31.4886C93.3184 31.4709 93.5963 31.4225 93.8077 31.3449C94.0192 31.2674 94.2078 31.1414 94.3742 30.9679C94.5581 30.7767 94.6849 30.534 94.7536 30.2407C94.8223 29.9473 94.8559 29.4927 94.8559 28.8768V19.723L94.8574 19.7237Z" fill="#C9BAA5"/>
<path d="M109.954 13.1064H109.699V0.653516H103.977V0.397793H109.954V13.1064Z" fill="#C9BAA5"/>
<path d="M35.997 31.4095V31.6659H34V24.4949H34.255V31.4095H35.997Z" fill="#C9BAA5"/>
<path d="M106.187 31.6951C106.203 31.6959 106.219 31.6959 106.235 31.6959C106.393 31.6959 106.547 31.6859 106.696 31.6652C106.532 31.6836 106.362 31.6936 106.187 31.6944V31.6951Z" fill="#C9BAA5"/>
<path d="M110 28.0259C110 28.5619 109.892 29.0742 109.678 29.5641C109.376 30.2453 108.923 30.7713 108.32 31.1414C107.716 31.5116 107.006 31.6959 106.188 31.6959C105.439 31.6959 104.72 31.5469 104.028 31.249C103.668 31.0915 103.454 31.0017 103.384 30.9779C103.314 30.9541 103.236 30.9425 103.149 30.9425C102.87 30.9425 102.678 31.0831 102.575 31.3626H102.374L102.376 31.0808L102.4 27.7456L102.601 27.7541C102.845 28.6748 103.135 29.399 103.472 29.9296C104.02 30.7782 104.691 31.2582 105.482 31.3711C105.604 31.3887 105.729 31.3972 105.856 31.3972C105.872 31.3972 105.888 31.3972 105.904 31.3956C106.55 31.3864 107.085 31.1614 107.511 30.7229C107.946 30.2729 108.164 29.7039 108.164 29.015C108.164 28.7178 108.116 28.4137 108.021 28.1042C107.924 27.7955 107.795 27.5291 107.633 27.3071C107.464 27.0798 107.228 26.8602 106.923 26.6505C106.618 26.4401 106.153 26.1752 105.526 25.8534C104.975 25.5724 104.552 25.3366 104.259 25.1438C103.966 24.9511 103.73 24.7553 103.549 24.5571C103.05 24.0088 102.8 23.34 102.8 22.5521C102.8 22.4246 102.807 22.2986 102.82 22.1735C102.864 21.8962 102.943 21.6251 103.058 21.3602C103.243 20.9325 103.501 20.5654 103.833 20.2598C104.307 19.819 104.851 19.5563 105.467 19.4726C105.469 19.4726 105.471 19.4726 105.473 19.4726C105.579 19.4603 105.688 19.4519 105.798 19.448C105.851 19.4457 105.904 19.445 105.958 19.445C105.972 19.445 105.988 19.445 106.004 19.445C106.303 19.445 106.597 19.4695 106.885 19.5202C107.491 19.6254 108.624 20.1484 109.231 20.1622C109.245 20.1622 109.259 20.1622 109.272 20.1607C109.406 20.1538 109.518 20.11 109.606 20.0301C109.678 19.9649 109.735 19.8758 109.777 19.7621H109.968L109.943 23.2056L109.752 23.1971C109.721 23.0773 109.688 22.9614 109.655 22.8492C109.546 22.4814 109.428 22.1504 109.301 21.8563C109.182 21.5798 109.056 21.3364 108.922 21.126C108.821 20.9693 108.714 20.8257 108.605 20.6952C108.061 20.0509 107.074 19.7291 106.317 19.7291C106.309 19.7291 106.301 19.7291 106.292 19.7291C105.668 19.7337 105.15 19.948 104.742 20.3696C104.418 20.7036 104.221 21.1068 104.151 21.5791C104.199 22.5006 104.821 23.2478 106.017 23.8199L107.242 24.4158C108.186 24.8658 108.867 25.3627 109.285 25.9056C109.76 26.5138 109.998 27.2211 109.998 28.0275L110 28.0259Z" fill="#C9BAA5"/>
<path d="M85.5265 10.8978C85.5265 11.5782 85.3898 12.2294 85.1173 12.8507C84.7341 13.7162 84.1593 14.3835 83.3921 14.8535C82.6256 15.3227 81.7233 15.5577 80.6843 15.5577C79.7339 15.5577 78.8194 15.368 77.9422 14.9902C77.4857 14.7905 77.2132 14.6753 77.1246 14.6454C77.0361 14.6154 76.9361 14.6008 76.8254 14.6008C76.4719 14.6008 76.2284 14.779 76.0963 15.1345H75.8414L75.8437 14.7767L75.8742 10.5423L76.1292 10.5538C76.4383 11.7226 76.8071 12.6426 77.2346 13.3161C77.93 14.3935 78.7812 15.0032 79.7873 15.1461C79.9423 15.1683 80.1011 15.1798 80.2629 15.1798C80.2828 15.1798 80.3026 15.1798 80.3225 15.1783C81.1439 15.166 81.8233 14.8811 82.3638 14.3244C82.9165 13.753 83.1936 13.0304 83.1936 12.1557C83.1936 11.7779 83.1325 11.3924 83.0111 10.9992C82.889 10.6068 82.7249 10.2689 82.5187 9.98704C82.305 9.6983 82.005 9.41953 81.6172 9.15306C81.2301 8.88582 80.6393 8.54869 79.8431 8.14092C79.143 7.78459 78.6071 7.48433 78.2346 7.24012C77.8621 6.99515 77.5613 6.74634 77.333 6.49446C76.6994 5.79794 76.3826 4.9486 76.3826 3.94797C76.3826 3.78594 76.391 3.62544 76.4078 3.46724C76.4635 3.11476 76.5635 2.77072 76.7093 2.43437C76.9445 1.89143 77.2712 1.42529 77.6934 1.03672C78.2957 0.47689 78.9865 0.143604 79.769 0.037629C79.7705 0.037629 79.7744 0.036861 79.7766 0.036861C79.911 0.0215022 80.0492 0.00998318 80.1896 0.00537555C80.2561 0.00307173 80.324 0.000767956 80.3927 0.000767956C80.4118 1.75939e-08 80.4309 0 80.4507 0C80.8309 0 81.2042 0.0307175 81.5706 0.0952244C82.3393 0.229614 83.7783 0.893112 84.5486 0.910007C84.5677 0.910007 84.5845 0.910007 84.6013 0.908471C84.7715 0.900024 84.9127 0.843964 85.0257 0.742596C85.1166 0.659659 85.1891 0.546004 85.2433 0.4024H85.486L85.4547 4.77504L85.2127 4.76429C85.173 4.61224 85.1311 4.46556 85.0891 4.32196C84.9501 3.85505 84.8013 3.43422 84.6394 3.06177C84.4898 2.71082 84.3295 2.40211 84.1593 2.13487C84.031 1.93597 83.8959 1.7532 83.7562 1.5881C83.0661 0.769475 81.8134 0.360931 80.8507 0.360931C80.8416 0.360931 80.8301 0.360931 80.8202 0.361699C80.027 0.367842 79.3705 0.638925 78.8514 1.17495C78.4407 1.59885 78.1903 2.1103 78.101 2.71082C78.1621 3.88116 78.9522 4.82957 80.4698 5.5568L82.0264 6.31322C83.2256 6.88457 84.0906 7.51505 84.6203 8.20542C85.2242 8.9772 85.5257 9.87569 85.5257 10.8994L85.5265 10.8978Z" fill="#C9BAA5"/>
<defs>
<filter id="filter0_d_815_24301" x="-1.09972" y="-1.10115" width="34.2007" height="28.6689" filterUnits="userSpaceOnUse" color-interpolation-filters="sRGB">
<feFlood flood-opacity="0" result="BackgroundImageFix"/>
<feColorMatrix in="SourceAlpha" type="matrix" values="0 0 0 0 0 0 0 0 0 0 0 0 0 0 0 0 0 0 127 0" result="hardAlpha"/>
<feOffset/>
<feGaussianBlur stdDeviation="1"/>
<feComposite in2="hardAlpha" operator="out"/>
<feColorMatrix type="matrix" values="0 0 0 0 0 0 0 0 0 0 0 0 0 0 0 0 0 0 0.75 0"/>
<feBlend mode="normal" in2="BackgroundImageFix" result="effect1_dropShadow_815_24301"/>
<feBlend mode="normal" in="SourceGraphic" in2="effect1_dropShadow_815_24301" result="shape"/>
</filter>
<filter id="filter1_d_815_24301" x="4.43253" y="-1.10029" width="28.6681" height="34.2007" filterUnits="userSpaceOnUse" color-interpolation-filters="sRGB">
<feFlood flood-opacity="0" result="BackgroundImageFix"/>
<feColorMatrix in="SourceAlpha" type="matrix" values="0 0 0 0 0 0 0 0 0 0 0 0 0 0 0 0 0 0 127 0" result="hardAlpha"/>
<feOffset/>
<feGaussianBlur stdDeviation="1"/>
<feComposite in2="hardAlpha" operator="out"/>
<feColorMatrix type="matrix" values="0 0 0 0 0 0 0 0 0 0 0 0 0 0 0 0 0 0 0.75 0"/>
<feBlend mode="normal" in2="BackgroundImageFix" result="effect1_dropShadow_815_24301"/>
<feBlend mode="normal" in="SourceGraphic" in2="effect1_dropShadow_815_24301" result="shape"/>
</filter>
<filter id="filter2_d_815_24301" x="-1.10029" y="4.43224" width="34.2007" height="28.6681" filterUnits="userSpaceOnUse" color-interpolation-filters="sRGB">
<feFlood flood-opacity="0" result="BackgroundImageFix"/>
<feColorMatrix in="SourceAlpha" type="matrix" values="0 0 0 0 0 0 0 0 0 0 0 0 0 0 0 0 0 0 127 0" result="hardAlpha"/>
<feOffset/>
<feGaussianBlur stdDeviation="1"/>
<feComposite in2="hardAlpha" operator="out"/>
<feColorMatrix type="matrix" values="0 0 0 0 0 0 0 0 0 0 0 0 0 0 0 0 0 0 0.75 0"/>
<feBlend mode="normal" in2="BackgroundImageFix" result="effect1_dropShadow_815_24301"/>
<feBlend mode="normal" in="SourceGraphic" in2="effect1_dropShadow_815_24301" result="shape"/>
</filter>
<filter id="filter3_d_815_24301" x="-1.10029" y="-1.10115" width="28.6689" height="34.2007" filterUnits="userSpaceOnUse" color-interpolation-filters="sRGB">
<feFlood flood-opacity="0" result="BackgroundImageFix"/>
<feColorMatrix in="SourceAlpha" type="matrix" values="0 0 0 0 0 0 0 0 0 0 0 0 0 0 0 0 0 0 127 0" result="hardAlpha"/>
<feOffset/>
<feGaussianBlur stdDeviation="1"/>
<feComposite in2="hardAlpha" operator="out"/>
<feColorMatrix type="matrix" values="0 0 0 0 0 0 0 0 0 0 0 0 0 0 0 0 0 0 0.75 0"/>
<feBlend mode="normal" in2="BackgroundImageFix" result="effect1_dropShadow_815_24301"/>
<feBlend mode="normal" in="SourceGraphic" in2="effect1_dropShadow_815_24301" result="shape"/>
</filter>
<clipPath id="clip0_815_24301">
<rect width="32" height="32" fill="white"/>
</clipPath>
</defs>
</svg>
