<svg width="32" height="32" viewBox="0 0 32 32" fill="none" xmlns="http://www.w3.org/2000/svg">
<g clip-path="url(#clip0_815_24349)">
<g filter="url(#filter0_d_815_24349)">
<path d="M15.7899 10.3914H7.84739C6.34253 10.3914 5.22557 10.4763 4.49573 10.6461C3.76589 10.8159 3.16457 11.1291 2.69255 11.5863C2.27973 11.9843 1.97362 12.4454 1.77422 12.9689C1.57482 13.4923 1.45331 14.1816 1.40891 15.0376H0.90028V0.899632H1.40891C1.45331 1.75488 1.57482 2.44421 1.77422 2.96842C1.97362 3.49185 2.27895 3.95296 2.69255 4.35099C3.16457 4.82301 3.762 5.14002 4.48483 5.30204C5.20766 5.46405 6.32851 5.54506 7.84739 5.54506H24.1531C25.4212 5.54506 26.3987 5.48975 27.0849 5.37915C27.7711 5.26854 28.3273 5.08083 28.7557 4.81522C29.3453 4.43121 29.7846 3.94517 30.0721 3.35476C30.3595 2.76435 30.5332 1.9979 30.5924 1.05386V0.898853H31.101V14.2408C31.101 16.5713 30.9826 18.2896 30.7474 19.3957C30.5114 20.5017 30.0393 21.512 29.3313 22.4264C27.7384 24.5209 25.6143 25.5677 22.9598 25.5677C20.3053 25.5677 18.284 24.5061 17.0307 22.382C16.3811 21.2759 15.9909 19.9331 15.8585 18.355C15.8141 17.8534 15.7923 16.6438 15.7923 14.7269V10.3907L15.7899 10.3914ZM16.498 10.3914V12.5599C16.498 14.0204 16.6047 15.1444 16.8189 15.9342C17.0323 16.7232 17.4272 17.4273 18.0028 18.0474C19.3153 19.493 21.0632 20.2158 23.2465 20.2158C24.4553 20.2158 25.5661 20.0055 26.5763 19.5849C27.5865 19.1643 28.4091 18.5638 29.0431 17.7817C29.7955 16.8821 30.238 15.8127 30.3704 14.5734C30.4 14.2338 30.4148 13.4596 30.4148 12.2507V10.3922H16.498V10.3914Z" fill="#C9BAA5"/>
</g>
<g filter="url(#filter1_d_815_24349)">
<path d="M21.6088 15.7894V7.84682C21.6088 6.34196 21.5239 5.225 21.3541 4.49516C21.1843 3.76533 20.8712 3.16401 20.414 2.69199C20.016 2.27916 19.5548 1.97305 19.0314 1.77365C18.508 1.57425 17.8187 1.45274 16.9626 1.40834V0.899712H31.0999V1.40834C30.2446 1.45274 29.5553 1.57425 29.0311 1.77365C28.5076 1.97305 28.0465 2.27838 27.6485 2.69199C27.1765 3.16401 26.8595 3.76143 26.6975 4.48426C26.5354 5.20709 26.4544 6.32794 26.4544 7.84682V24.1525C26.4544 25.4206 26.5097 26.3981 26.6203 27.0844C26.7309 27.7706 26.9187 28.3267 27.1843 28.7551C27.5683 29.3448 28.0543 29.7841 28.6447 30.0715C29.2351 30.3589 30.0016 30.5326 30.9456 30.5918H31.1006V31.1004H17.7595C15.4289 31.1004 13.7107 30.982 12.6046 30.7468C11.4986 30.5108 10.4883 30.0388 9.57388 29.3307C7.47939 27.7379 6.43253 25.6138 6.43253 22.9592C6.43253 20.3047 7.49419 18.2834 9.61828 17.0302C10.7243 16.3806 12.0672 15.9903 13.6452 15.8579C14.1469 15.8135 15.3565 15.7917 17.2734 15.7917H21.6096L21.6088 15.7894ZM21.6088 16.4974H19.4403C17.9799 16.4974 16.8559 16.6041 16.0661 16.8183C15.2771 17.0317 14.5729 17.4266 13.9529 18.0023C12.5073 19.3147 11.7844 21.0626 11.7844 23.2459C11.7844 24.4548 11.9947 25.5655 12.4153 26.5757C12.836 27.586 13.4365 28.4085 14.2185 29.0425C15.1182 29.795 16.1876 30.2374 17.4269 30.3698C17.7665 30.3994 18.5407 30.4142 19.7496 30.4142H21.6081V16.4974H21.6088Z" fill="#C9BAA5"/>
</g>
<g filter="url(#filter2_d_815_24349)">
<path d="M16.2108 21.6085H24.1533C25.6582 21.6085 26.7751 21.5236 27.505 21.3538C28.2348 21.184 28.8361 20.8709 29.3082 20.4137C29.721 20.0157 30.0271 19.5546 30.2265 19.0311C30.4259 18.5077 30.5474 17.8184 30.5918 16.9623H31.1004V31.0996H30.5918C30.5474 30.2443 30.4259 29.555 30.2265 29.0308C30.0271 28.5074 29.7218 28.0462 29.3082 27.6482C28.8361 27.1762 28.2387 26.8592 27.5159 26.6972C26.793 26.5352 25.6722 26.4541 24.1533 26.4541H7.8476C6.57953 26.4541 5.602 26.5095 4.91578 26.6201C4.22956 26.7307 3.67341 26.9184 3.24501 27.184C2.65538 27.568 2.21607 28.054 1.92865 28.6444C1.64123 29.2349 1.46754 30.0013 1.40834 30.9453V31.1004H0.899712V17.7592C0.899712 15.4287 1.01811 13.7104 1.25334 12.6043C1.48935 11.4983 1.96137 10.488 2.6694 9.57359C4.26227 7.4791 6.38636 6.43224 9.04089 6.43224C11.6954 6.43224 13.7167 7.4939 14.97 9.61799C15.6196 10.724 16.0098 12.0669 16.1422 13.645C16.1866 14.1466 16.2084 15.3562 16.2084 17.2731V21.6093L16.2108 21.6085ZM15.5027 21.6085V19.4401C15.5027 17.9796 15.396 16.8556 15.1818 16.0658C14.9684 15.2768 14.5735 14.5726 13.9979 13.9526C12.6854 12.507 10.9375 11.7841 8.75425 11.7841C7.54538 11.7841 6.43465 11.9944 5.42441 12.4151C4.41416 12.8357 3.59163 13.4362 2.95759 14.2182C2.20517 15.1179 1.76275 16.1873 1.63033 17.4266C1.60073 17.7662 1.58593 18.5404 1.58593 19.7493V21.6078H15.5027V21.6085Z" fill="#C9BAA5"/>
</g>
<g filter="url(#filter3_d_815_24349)">
<path d="M10.3915 16.2099V24.1525C10.3915 25.6573 10.4764 26.7743 10.6462 27.5041C10.816 28.234 11.1292 28.8353 11.5864 29.3073C11.9844 29.7201 12.4455 30.0262 12.9689 30.2256C13.4924 30.425 14.1817 30.5465 15.0377 30.5909V31.0996H0.900491V30.5909C1.75573 30.5465 2.44507 30.425 2.96928 30.2256C3.49271 30.0262 3.95382 29.7209 4.35185 29.3073C4.82387 28.8353 5.14088 28.2378 5.3029 27.515C5.46491 26.7922 5.54592 25.6713 5.54592 24.1525V7.84674C5.54592 6.57867 5.49061 5.60114 5.38001 4.91492C5.2694 4.2287 5.08169 3.67256 4.81608 3.24415C4.43207 2.65452 3.94603 2.21521 3.35562 1.92779C2.7652 1.64038 1.99876 1.46668 1.05472 1.40748H0.899712V0.898853H14.2417C16.5722 0.898853 18.2905 1.01725 19.3965 1.25248C20.5026 1.48849 21.5128 1.96051 22.4273 2.66854C24.5217 4.26141 25.5686 6.3855 25.5686 9.04003C25.5686 11.6946 24.5069 13.7158 22.3829 14.9691C21.2768 15.6187 19.934 16.0089 18.3559 16.1414C17.8543 16.1858 16.6446 16.2076 14.7277 16.2076H10.3915V16.2099ZM10.3915 15.5019H12.56C14.0205 15.5019 15.1444 15.3952 15.9343 15.181C16.7233 14.9675 17.4274 14.5726 18.0474 13.997C19.4931 12.6846 20.2159 10.9367 20.2159 8.75339C20.2159 7.54452 20.0056 6.43379 19.585 5.42355C19.1644 4.4133 18.5639 3.59077 17.7818 2.95674C16.8822 2.20431 15.8127 1.76189 14.5735 1.62947C14.2339 1.59987 13.4597 1.58507 12.2508 1.58507H10.3923V15.5019H10.3915Z" fill="#C9BAA5"/>
</g>
<path d="M30.4141 1.58586V30.4141H1.58586V1.58586H30.4141ZM32 0H0V32H32V0Z" fill="#C9BAA5"/>
</g>
<defs>
<filter id="filter0_d_815_24349" x="-1.09972" y="-1.10115" width="34.2007" height="28.6689" filterUnits="userSpaceOnUse" color-interpolation-filters="sRGB">
<feFlood flood-opacity="0" result="BackgroundImageFix"/>
<feColorMatrix in="SourceAlpha" type="matrix" values="0 0 0 0 0 0 0 0 0 0 0 0 0 0 0 0 0 0 127 0" result="hardAlpha"/>
<feOffset/>
<feGaussianBlur stdDeviation="1"/>
<feComposite in2="hardAlpha" operator="out"/>
<feColorMatrix type="matrix" values="0 0 0 0 0 0 0 0 0 0 0 0 0 0 0 0 0 0 0.75 0"/>
<feBlend mode="normal" in2="BackgroundImageFix" result="effect1_dropShadow_815_24349"/>
<feBlend mode="normal" in="SourceGraphic" in2="effect1_dropShadow_815_24349" result="shape"/>
</filter>
<filter id="filter1_d_815_24349" x="4.43253" y="-1.10029" width="28.6681" height="34.2007" filterUnits="userSpaceOnUse" color-interpolation-filters="sRGB">
<feFlood flood-opacity="0" result="BackgroundImageFix"/>
<feColorMatrix in="SourceAlpha" type="matrix" values="0 0 0 0 0 0 0 0 0 0 0 0 0 0 0 0 0 0 127 0" result="hardAlpha"/>
<feOffset/>
<feGaussianBlur stdDeviation="1"/>
<feComposite in2="hardAlpha" operator="out"/>
<feColorMatrix type="matrix" values="0 0 0 0 0 0 0 0 0 0 0 0 0 0 0 0 0 0 0.75 0"/>
<feBlend mode="normal" in2="BackgroundImageFix" result="effect1_dropShadow_815_24349"/>
<feBlend mode="normal" in="SourceGraphic" in2="effect1_dropShadow_815_24349" result="shape"/>
</filter>
<filter id="filter2_d_815_24349" x="-1.10029" y="4.43224" width="34.2007" height="28.6681" filterUnits="userSpaceOnUse" color-interpolation-filters="sRGB">
<feFlood flood-opacity="0" result="BackgroundImageFix"/>
<feColorMatrix in="SourceAlpha" type="matrix" values="0 0 0 0 0 0 0 0 0 0 0 0 0 0 0 0 0 0 127 0" result="hardAlpha"/>
<feOffset/>
<feGaussianBlur stdDeviation="1"/>
<feComposite in2="hardAlpha" operator="out"/>
<feColorMatrix type="matrix" values="0 0 0 0 0 0 0 0 0 0 0 0 0 0 0 0 0 0 0.75 0"/>
<feBlend mode="normal" in2="BackgroundImageFix" result="effect1_dropShadow_815_24349"/>
<feBlend mode="normal" in="SourceGraphic" in2="effect1_dropShadow_815_24349" result="shape"/>
</filter>
<filter id="filter3_d_815_24349" x="-1.10029" y="-1.10115" width="28.6689" height="34.2007" filterUnits="userSpaceOnUse" color-interpolation-filters="sRGB">
<feFlood flood-opacity="0" result="BackgroundImageFix"/>
<feColorMatrix in="SourceAlpha" type="matrix" values="0 0 0 0 0 0 0 0 0 0 0 0 0 0 0 0 0 0 127 0" result="hardAlpha"/>
<feOffset/>
<feGaussianBlur stdDeviation="1"/>
<feComposite in2="hardAlpha" operator="out"/>
<feColorMatrix type="matrix" values="0 0 0 0 0 0 0 0 0 0 0 0 0 0 0 0 0 0 0.75 0"/>
<feBlend mode="normal" in2="BackgroundImageFix" result="effect1_dropShadow_815_24349"/>
<feBlend mode="normal" in="SourceGraphic" in2="effect1_dropShadow_815_24349" result="shape"/>
</filter>
<clipPath id="clip0_815_24349">
<rect width="32" height="32" fill="white"/>
</clipPath>
</defs>
</svg>
