<svg width="28" height="28" viewBox="0 0 28 28" fill="none" xmlns="http://www.w3.org/2000/svg">
<path d="M14.0002 14H14.006M19.8335 14H19.8393M8.16683 14H8.17266M6.06683 8.16666H21.9335C23.2403 8.16666 23.8937 8.16666 24.3928 8.42097C24.8319 8.64468 25.1888 9.00163 25.4125 9.44068C25.6668 9.93981 25.6668 10.5932 25.6668 11.9V16.1C25.6668 17.4068 25.6668 18.0602 25.4125 18.5593C25.1888 18.9983 24.8319 19.3553 24.3928 19.579C23.8937 19.8333 23.2403 19.8333 21.9335 19.8333H6.06683C4.76004 19.8333 4.10665 19.8333 3.60752 19.579C3.16847 19.3553 2.81152 18.9983 2.58781 18.5593C2.3335 18.0602 2.3335 17.4068 2.3335 16.1V11.9C2.3335 10.5932 2.3335 9.93981 2.58781 9.44068C2.81152 9.00163 3.16847 8.64468 3.60752 8.42097C4.10665 8.16666 4.76004 8.16666 6.06683 8.16666ZM14.2918 14C14.2918 14.1611 14.1612 14.2917 14.0002 14.2917C13.8391 14.2917 13.7085 14.1611 13.7085 14C13.7085 13.8389 13.8391 13.7083 14.0002 13.7083C14.1612 13.7083 14.2918 13.8389 14.2918 14ZM20.1252 14C20.1252 14.1611 19.9946 14.2917 19.8335 14.2917C19.6724 14.2917 19.5418 14.1611 19.5418 14C19.5418 13.8389 19.6724 13.7083 19.8335 13.7083C19.9946 13.7083 20.1252 13.8389 20.1252 14ZM8.4585 14C8.4585 14.1611 8.32791 14.2917 8.16683 14.2917C8.00575 14.2917 7.87516 14.1611 7.87516 14C7.87516 13.8389 8.00575 13.7083 8.16683 13.7083C8.32791 13.7083 8.4585 13.8389 8.4585 14Z" stroke="#D4D4D4" stroke-width="2" stroke-linecap="round" stroke-linejoin="round"/>
</svg>
