<svg width="28" height="28" viewBox="0 0 28 28" fill="none" xmlns="http://www.w3.org/2000/svg">
<path d="M2.33325 8.16666L11.859 14.8347C12.6304 15.3746 13.016 15.6446 13.4356 15.7492C13.8061 15.8416 14.1937 15.8416 14.5643 15.7492C14.9838 15.6446 15.3695 15.3746 16.1408 14.8347L25.6666 8.16666M7.93325 23.3333H20.0666C22.0268 23.3333 23.0069 23.3333 23.7556 22.9518C24.4141 22.6163 24.9496 22.0809 25.2851 21.4223C25.6666 20.6736 25.6666 19.6935 25.6666 17.7333V10.2667C25.6666 8.30647 25.6666 7.32638 25.2851 6.57769C24.9496 5.91912 24.4141 5.38369 23.7556 5.04813C23.0069 4.66666 22.0268 4.66666 20.0666 4.66666H7.93325C5.97307 4.66666 4.99298 4.66666 4.24429 5.04813C3.58572 5.38369 3.05029 5.91912 2.71473 6.57769C2.33325 7.32638 2.33325 8.30647 2.33325 10.2667V17.7333C2.33325 19.6935 2.33325 20.6736 2.71473 21.4223C3.05029 22.0809 3.58572 22.6163 4.24429 22.9518C4.99298 23.3333 5.97307 23.3333 7.93325 23.3333Z" stroke="#D4D4D4" stroke-width="2" stroke-linecap="round" stroke-linejoin="round"/>
</svg>
