<svg width="28" height="28" viewBox="0 0 28 28" fill="none" xmlns="http://www.w3.org/2000/svg">
<path d="M23.3337 14.5833V7.93325C23.3337 5.97307 23.3337 4.99298 22.9522 4.24429C22.6166 3.58572 22.0812 3.05029 21.4226 2.71473C20.6739 2.33325 19.6938 2.33325 17.7337 2.33325H10.267C8.30681 2.33325 7.32672 2.33325 6.57803 2.71473C5.91946 3.05029 5.38403 3.58572 5.04847 4.24429C4.66699 4.99298 4.66699 5.97307 4.66699 7.93325V20.0666C4.66699 22.0268 4.66699 23.0069 5.04847 23.7556C5.38403 24.4141 5.91946 24.9495 6.57803 25.2851C7.32672 25.6666 8.30681 25.6666 10.267 25.6666H14.0003M16.3337 12.8333H9.33366M11.667 17.4999H9.33366M18.667 8.16659H9.33366M16.917 22.1666L19.2503 24.4999L24.5003 19.2499" stroke="#D4D4D4" stroke-width="2" stroke-linecap="round" stroke-linejoin="round"/>
</svg>
