<svg width="20" height="20" viewBox="0 0 20 20" fill="none" xmlns="http://www.w3.org/2000/svg">
<path d="M8.33329 6.66683V5.8335M8.33329 10.4168V9.5835M8.33329 14.1668V13.3335M4.33329 3.3335H15.6666C16.6 3.3335 17.0668 3.3335 17.4233 3.51515C17.7369 3.67494 17.9918 3.92991 18.1516 4.24351C18.3333 4.60003 18.3333 5.06674 18.3333 6.00016V7.0835C16.7225 7.0835 15.4166 8.38933 15.4166 10.0002C15.4166 11.611 16.7225 12.9168 18.3333 12.9168V14.0002C18.3333 14.9336 18.3333 15.4003 18.1516 15.7568C17.9918 16.0704 17.7369 16.3254 17.4233 16.4852C17.0668 16.6668 16.6 16.6668 15.6666 16.6668H4.33329C3.39987 16.6668 2.93316 16.6668 2.57664 16.4852C2.26304 16.3254 2.00807 16.0704 1.84828 15.7568C1.66663 15.4003 1.66663 14.9336 1.66663 14.0002V12.9168C3.27746 12.9168 4.58329 11.611 4.58329 10.0002C4.58329 8.38933 3.27746 7.0835 1.66663 7.0835V6.00016C1.66663 5.06674 1.66663 4.60003 1.84828 4.24351C2.00807 3.92991 2.26304 3.67494 2.57664 3.51515C2.93316 3.3335 3.39987 3.3335 4.33329 3.3335Z" stroke="white" stroke-width="1.67" stroke-linecap="round" stroke-linejoin="round"/>
</svg>
